<?xml version="1.0" standalone="no"?>
<!DOCTYPE svg PUBLIC "-//W3C//DTD SVG 20010904//EN"
 "http://www.w3.org/TR/2001/REC-SVG-20010904/DTD/svg10.dtd">
<svg version="1.0" xmlns="http://www.w3.org/2000/svg"
 width="512.000000pt" height="512.000000pt" viewBox="0 0 512.000000 512.000000"
 preserveAspectRatio="xMidYMid meet">
<metadata>
Created by potrace 1.14, written by Peter Selinger 2001-2017
</metadata>
<g transform="translate(0.000000,512.000000) scale(0.100000,-0.100000)"
fill="#000000" stroke="none">
<path d="M415 5110 c-183 -38 -330 -170 -391 -350 -18 -53 -19 -134 -19 -2200
0 -2066 1 -2147 19 -2200 52 -154 168 -274 322 -332 l59 -23 2155 0 2155 0 59
23 c154 58 270 178 322 332 18 53 19 134 19 2200 0 2066 -1 2147 -19 2200 -52
154 -168 274 -322 332 l-59 23 -2130 1 c-1172 1 -2148 -2 -2170 -6z m3225
-1315 c382 -58 654 -315 663 -625 l2 -75 -179 0 -180 0 -18 74 c-30 121 -105
202 -233 250 -197 74 -463 40 -596 -77 -102 -89 -128 -250 -58 -355 62 -95
174 -147 499 -237 235 -64 310 -90 410 -140 101 -51 172 -103 237 -174 132
-145 179 -328 138 -542 -53 -279 -284 -490 -615 -561 -120 -25 -401 -25 -520
0 -363 79 -592 316 -626 650 l-7 67 195 0 195 0 7 -47 c12 -90 36 -142 89
-196 95 -95 225 -139 412 -139 301 0 508 149 509 366 0 81 -21 131 -76 182
-75 69 -154 102 -476 195 -368 106 -489 164 -623 298 -115 115 -159 227 -159
401 0 117 20 202 65 289 70 132 179 237 320 306 192 94 402 124 625 90z
m-1360 -190 l0 -175 -555 0 -555 0 0 -345 0 -345 505 0 505 0 0 -175 0 -175
-505 0 -505 0 0 -520 0 -520 -195 0 -195 0 0 1208 c0 665 3 1212 7 1215 3 4
341 7 750 7 l743 0 0 -175z"/>
</g>
</svg>
